# xmcd
#
# Track frame offsets:
#	150
#	17811
#	39897
#	57563
#
# Disc length: 1019 seconds
#
# Revision: 0
# Processed by: cddbd v1.5.2PL0 Copyright (c) Steve Scherf et al.
# Submitted via: audiograbber 1.83.01
#
DISCID=2b03f904
DTITLE=Jeanette - Rock my life (Maxi)
DYEAR=2002
DGENRE=Pop
TTITLE0=Rock my life (Radio edit)
TTITLE1=Rock my life (Rock version)
TTITLE2=Rock my life (Instrumental)
TTITLE3=Jeanette the hit edit
EXTD=
EXTT0=
EXTT1=
EXTT2=
EXTT3=
PLAYORDER=
